<?xml version="1.0" encoding="UTF-8"?>
<svg version="1.1" xmlns="http://www.w3.org/2000/svg" width="512" height="512">
<path d="M0 0 C1.15628906 1.02480469 1.15628906 1.02480469 2.3359375 2.0703125 C3.16867187 2.79476562 4.00140625 3.51921875 4.859375 4.265625 C7.3873755 6.4980439 9.86811285 8.77162225 12.3359375 11.0703125 C13.28726562 11.94429688 14.23859375 12.81828125 15.21875 13.71875 C16.60707031 15.03746094 16.60707031 15.03746094 18.0234375 16.3828125 C18.87292969 17.18332031 19.72242188 17.98382813 20.59765625 18.80859375 C22.3359375 21.0703125 22.3359375 21.0703125 22.4375 23.046875 C20.83630297 25.9880809 18.51999198 27.9688729 16.0234375 30.1328125 C14.92168386 31.11436883 13.82012668 32.09614571 12.71875 33.078125 C12.15446289 33.57602539 11.59017578 34.07392578 11.00878906 34.58691406 C8.44263013 36.86245137 5.92252429 39.18565266 3.3984375 41.5078125 C2.39853261 42.42458291 1.39853157 43.34124846 0.3984375 44.2578125 C-2.77347742 47.16879868 -5.93838547 50.0873369 -9.1015625 53.0078125 C-9.63724854 53.50224854 -10.17293457 53.99668457 -10.72485352 54.50610352 C-13.52941738 57.09567461 -16.33100076 59.68839196 -19.12890625 62.28515625 C-21.34301184 64.34007778 -23.56448023 66.3864718 -25.79296875 68.42578125 C-27.46767277 69.96833175 -29.12880625 71.52636945 -30.75390625 73.12109375 C-34.1256976 76.32467782 -36.9469749 78.10389195 -41.58691406 78.26000977 C-47.93534448 77.68023421 -53.45644897 71.90262775 -58.1015625 67.9453125 C-74.641773 54.22550904 -93.70446883 43.2537059 -114.6640625 38.0703125 C-115.31971191 37.90660156 -115.97536133 37.74289063 -116.65087891 37.57421875 C-154.1450882 28.71976776 -195.15555619 37.22206721 -227.6640625 57.0703125 C-232.26622103 60.09719817 -236.48544251 63.47940277 -240.6640625 67.0703125 C-241.52902344 67.78574219 -242.39398438 68.50117188 -243.28515625 69.23828125 C-254.1748898 78.56505772 -262.69996861 89.56457794 -269.6640625 102.0703125 C-270.26992188 103.15828125 -270.87578125 104.24625 -271.5 105.3671875 C-282.99517621 127.1528053 -287.89251783 151.4014929 -287.9140625 175.8828125 C-287.91473724 176.57183655 -287.91541199 177.2608606 -287.91610718 177.97076416 C-287.89863565 189.22797967 -287.26983059 200.08556374 -284.6640625 211.0703125 C-284.49777344 211.77720215 -284.33148438 212.4840918 -284.16015625 213.21240234 C-275.2775563 249.44189566 -252.72141664 280.69534709 -221.08984375 300.32421875 C-200.61588111 312.61602168 -178.81894632 318.49227111 -155.0390625 318.3828125 C-154.37976746 318.37999268 -153.72047241 318.37717285 -153.04119873 318.37426758 C-121.84247116 318.17443887 -90.76135601 308.41838071 -66.6640625 288.0703125 C-65.15779297 286.80767578 -65.15779297 286.80767578 -63.62109375 285.51953125 C-47.03692648 271.20339634 -33.07750707 250.10764407 -31.4140625 227.703125 C-31.39694888 224.91269455 -31.39694888 224.91269455 -33.6640625 223.0703125 C-36.37188051 222.17727105 -38.82805395 221.94883391 -41.6665802 221.96351624 C-42.45289322 221.96503189 -43.23920624 221.96654755 -44.04934692 221.96810913 C-45.32973343 221.97821518 -45.32973343 221.97821518 -46.63598633 221.98852539 C-47.54216202 221.99159195 -48.44833771 221.99465851 -49.38197327 221.99781799 C-51.34847204 222.00496754 -53.31496367 222.01435467 -55.28144264 222.02571297 C-58.39634805 222.0431098 -61.51120209 222.05340496 -64.62614441 222.06163025 C-73.4823391 222.08607568 -82.3384647 222.12160275 -91.19458008 222.16625977 C-96.61323782 222.19308558 -102.03185545 222.21010113 -107.45056725 222.22112846 C-109.51299202 222.22732649 -111.57540909 222.23731706 -113.6377964 222.25120735 C-116.52656729 222.27048645 -119.41512838 222.2773286 -122.30395508 222.28149414 C-123.57523254 222.29463654 -123.57523254 222.29463654 -124.87219238 222.30804443 C-129.84275705 222.29988807 -134.00345172 221.87063246 -138.6640625 220.0703125 C-143.01573878 213.54279809 -141.82447292 204.31569915 -141.83203125 196.72265625 C-141.83535965 195.55199112 -141.83868805 194.38132599 -141.84211731 193.17518616 C-141.84716121 190.71013785 -141.84952642 188.24508276 -141.84936523 185.7800293 C-141.85155735 182.01665023 -141.86975574 178.25356189 -141.88867188 174.49023438 C-141.89160522 172.08854266 -141.89359041 169.68684957 -141.89453125 167.28515625 C-141.90171677 166.1651976 -141.90890228 165.04523895 -141.91630554 163.89134216 C-141.89982872 158.24254177 -141.71741554 153.36518205 -139.6640625 148.0703125 C-135.44267292 143.98509678 -131.29275921 143.94393586 -125.63079834 143.93659973 C-124.55017872 143.9332014 -124.55017872 143.9332014 -123.4477284 143.92973441 C-121.02731056 143.92339092 -118.60694868 143.924224 -116.18652344 143.92504883 C-114.45361763 143.9220575 -112.72071249 143.91865503 -110.98780823 143.91487122 C-106.2748527 143.90602293 -101.56191532 143.90369271 -96.84895229 143.90305543 C-92.91518501 143.90210658 -88.98142196 143.89842844 -85.0476563 143.89488333 C-75.76500436 143.88673512 -66.48236213 143.88429938 -57.19970703 143.88500977 C-47.62549262 143.88561021 -38.05133461 143.8750659 -28.47713447 143.8592661 C-20.25792162 143.84618588 -12.0387272 143.84082609 -3.81950402 143.84146518 C1.08963232 143.84172008 5.99871857 143.83887305 10.90784454 143.82828712 C15.52726395 143.81859843 20.1465855 143.81853229 24.76600838 143.82580376 C26.45948238 143.82684874 28.15296249 143.82449185 29.84642601 143.8184433 C32.16264483 143.81070784 34.47852702 143.81537837 36.79473877 143.82307434 C38.08964863 143.82252957 39.38455849 143.82198481 40.71870804 143.82142353 C45.80213807 144.17119666 49.95845211 144.74568129 53.6965332 148.34033203 C59.28977756 157.65435412 57.69786795 171.59168783 57.6484375 182.1953125 C57.64628235 183.02801666 57.6441272 183.86072083 57.64190674 184.71865845 C57.40736908 241.49236183 40.73577725 295.6982137 3.3359375 339.0703125 C2.23572266 340.36582031 2.23572266 340.36582031 1.11328125 341.6875 C-9.43477103 353.75983729 -20.9583285 365.29024093 -33.6640625 375.0703125 C-34.98841549 376.13232594 -36.31120195 377.19629445 -37.6328125 378.26171875 C-69.99840815 404.16213687 -107.11997572 423.18118928 -145.6640625 438.0703125 C-146.71303711 438.48249023 -147.76201172 438.89466797 -148.84277344 439.31933594 C-151.81800562 440.48445526 -154.80104713 441.62593429 -157.7890625 442.7578125 C-159.09375488 443.2669519 -159.09375488 443.2669519 -160.42480469 443.78637695 C-166.07328716 445.86893732 -170.63958959 446.4818854 -176.6640625 446.0703125 C-177.6640625 445.0703125 -177.6640625 445.0703125 -177.74584961 441.54785156 C-177.73207263 439.97716912 -177.71356966 438.40652399 -177.69140625 436.8359375 C-177.67875307 435.13021041 -177.66639263 433.42448113 -177.65429688 431.71875 C-177.62952442 429.02174102 -177.60161881 426.32484487 -177.56811523 423.62792969 C-177.53783045 421.03059178 -177.52010626 418.43339618 -177.50390625 415.8359375 C-177.49044662 415.03367737 -177.476987 414.23141724 -177.46311951 413.40484619 C-177.44430312 409.1880697 -177.60900931 405.87464503 -179.6640625 402.0703125 C-184.11770908 398.22847999 -190.12061343 397.79890474 -195.7265625 396.7578125 C-239.06080807 388.16748175 -276.78992003 368.58068569 -308.6640625 338.0703125 C-309.16147949 337.60012695 -309.65889648 337.12994141 -310.17138672 336.64550781 C-352.59539036 296.3883582 -373.81239988 238.74584474 -375.58984375 181.078125 C-376.7513443 118.70641904 -352.22126045 60.4601318 -309.3984375 15.61328125 C-302.87750982 8.91451888 -296.04692844 2.81714363 -288.6640625 -2.9296875 C-287.69339844 -3.71730469 -286.72273438 -4.50492188 -285.72265625 -5.31640625 C-264.98526834 -21.84921738 -240.75459449 -34.50028536 -215.6640625 -42.9296875 C-214.82439941 -43.21183105 -213.98473633 -43.49397461 -213.11962891 -43.78466797 C-141.6140951 -67.20580112 -56.96691137 -48.7004195 0 0 Z " fill="#030303" transform="translate(415.6640625,63.9296875)"/>
</svg>
