<?xml version="1.0" encoding="UTF-8"?>
<svg version="1.1" xmlns="http://www.w3.org/2000/svg" width="1024" height="341">
<path d="M0 0 C337.92 0 675.84 0 1024 0 C1024 112.53 1024 225.06 1024 341 C686.08 341 348.16 341 0 341 C0 228.47 0 115.94 0 0 Z " fill="#FDFEFE" transform="translate(0,0)"/>
<path d="M0 0 C9.39265422 8.09187297 9.39265422 8.09187297 13.171875 11.87109375 C12.9782895 17.90947232 10.92666142 21.04486148 6.796875 25.18359375 C6.26392822 25.73829346 5.73098145 26.29299316 5.18188477 26.86450195 C-11.01248888 43.52245956 -11.01248888 43.52245956 -17.140625 44.28125 C-21.7364734 43.77005924 -23.37213895 42.32808156 -26.828125 39.30859375 C-41.98365309 26.78165468 -59.4479144 22.62466879 -78.828125 23.87109375 C-81.98533648 24.23230015 -84.81769728 24.86952559 -87.828125 25.87109375 C-88.67117187 26.12761719 -89.51421875 26.38414063 -90.3828125 26.6484375 C-107.22849437 32.20798973 -120.64616586 42.99724073 -128.828125 58.87109375 C-136.20939476 75.80572567 -138.13838855 96.13526996 -131.828125 113.87109375 C-124.98158811 130.34947238 -114.80051854 145.27598492 -97.953125 152.68359375 C-81.72996623 158.8715991 -62.11242489 159.29195179 -45.828125 152.87109375 C-33.94904576 147.42936393 -23.86063189 140.37252339 -18.6328125 128.0546875 C-17.63640657 125.34224914 -16.71167931 122.62216056 -15.828125 119.87109375 C-15.16261492 117.87070859 -14.49608402 115.8706625 -13.828125 113.87109375 C-14.4353389 113.8799762 -15.0425528 113.88885864 -15.66816711 113.89801025 C-21.97814537 113.98638499 -28.28794837 114.04678682 -34.59838867 114.09082031 C-36.95458108 114.11095732 -39.31072339 114.13826891 -41.66674805 114.17285156 C-45.05009306 114.22127662 -48.4327784 114.24404171 -51.81640625 114.26171875 C-53.40090324 114.29268646 -53.40090324 114.29268646 -55.01741028 114.32427979 C-55.99820053 114.32458191 -56.97899078 114.32488403 -57.98950195 114.32519531 C-58.85331985 114.33407776 -59.71713776 114.34296021 -60.60713196 114.35211182 C-62.828125 113.87109375 -62.828125 113.87109375 -64.58836365 111.98916626 C-68.21218536 105.79804155 -67.0502441 97.66752674 -67.078125 90.74609375 C-67.09875 89.45832031 -67.119375 88.17054688 -67.140625 86.84375 C-67.14835937 84.99716797 -67.14835937 84.99716797 -67.15625 83.11328125 C-67.1655957 81.98776855 -67.17494141 80.86225586 -67.18457031 79.70263672 C-66.77741059 76.46822681 -66.32570787 75.83369275 -63.828125 73.87109375 C-60.88160612 73.56957895 -58.14563976 73.4511251 -55.19750977 73.46704102 C-54.31592194 73.46017776 -53.43433411 73.45331451 -52.52603149 73.44624329 C-49.607035 73.42791722 -46.68857302 73.43182111 -43.76953125 73.4375 C-41.74315719 73.43294088 -39.71678468 73.42763612 -37.69041443 73.4216156 C-33.44092533 73.41267301 -29.19162404 73.41512058 -24.94213867 73.42504883 C-19.49317937 73.43653809 -14.04486813 73.41633334 -8.595994 73.38713169 C-4.41041436 73.36879556 -0.22499074 73.36905702 3.96061897 73.37476921 C5.96969575 73.37492275 7.9787829 73.36885139 9.98782158 73.35647774 C12.79625094 73.34161898 15.60347393 73.35220713 18.41186523 73.36938477 C19.65959969 73.35488281 19.65959969 73.35488281 20.93254089 73.34008789 C24.54530573 73.38641816 26.72526235 73.5458769 29.68702698 75.70259094 C31.80496065 78.79566514 31.68964181 81.12099935 31.703125 84.84765625 C31.70867401 85.52602036 31.71422302 86.20438446 31.71994019 86.90330505 C31.72824849 89.10172924 31.70309234 91.29789743 31.671875 93.49609375 C31.66633606 94.24373993 31.66079712 94.99138611 31.65509033 95.76168823 C31.55522419 107.19636195 30.80325122 117.96591068 27.171875 128.87109375 C26.95756836 129.54301758 26.74326172 130.21494141 26.52246094 130.90722656 C21.421704 146.61043025 13.72659959 160.221916 3.171875 172.87109375 C2.058125 174.21494141 2.058125 174.21494141 0.921875 175.5859375 C-4.42556109 181.78323397 -10.31984432 186.92412161 -16.828125 191.87109375 C-17.35003418 192.26796387 -17.87194336 192.66483398 -18.40966797 193.07373047 C-36.81145883 206.94246433 -59.23041694 221.69120835 -82.828125 222.87109375 C-84.40580415 221.2934146 -83.99221374 219.65581348 -84.0390625 217.46875 C-84.06742187 216.57865234 -84.09578125 215.68855469 -84.125 214.77148438 C-84.17697039 212.88365979 -84.22127538 210.9956082 -84.2578125 209.10742188 C-84.28875 208.21603516 -84.3196875 207.32464844 -84.3515625 206.40625 C-84.3812915 205.17467163 -84.3812915 205.17467163 -84.41162109 203.91821289 C-84.65823324 201.47536669 -84.65823324 201.47536669 -87.828125 199.87109375 C-90.1319184 199.44586766 -92.44688793 199.08036854 -94.765625 198.74609375 C-120.99420083 194.28829652 -143.53633521 178.54796341 -159.828125 157.87109375 C-168.82723879 144.8944711 -174.65226793 130.9987269 -178.828125 115.87109375 C-179.20130859 114.54078125 -179.20130859 114.54078125 -179.58203125 113.18359375 C-186.3334734 83.72275528 -177.21275575 52.01789479 -161.72631836 26.99316406 C-154.8728546 16.28515049 -147.28227357 7.22483164 -136.828125 -0.12890625 C-136.29977051 -0.51046875 -135.77141602 -0.89203125 -135.22705078 -1.28515625 C-95.3186738 -29.97525596 -38.96322736 -31.71255159 0 0 Z " fill="#010101" transform="translate(243.828125,62.12890625)"/>
<path d="M0 0 C14.92765084 11.04646162 23.09034558 30.20259321 26.57006836 48.03637695 C29.90949963 71.05588642 26.16674687 90.95393189 15 111 C14.43152344 112.03511719 13.86304688 113.07023437 13.27734375 114.13671875 C5.69159929 126.99482462 -5.52317259 134.71105051 -19.75 138.875 C-38.47782796 142.99316112 -53.64145957 137.67665827 -70 129 C-71.33079693 128.32828446 -72.66259772 127.65846592 -74 127 C-73.83832336 127.87436707 -73.67664673 128.74873413 -73.5100708 129.64959717 C-73.04618125 132.69665818 -72.86121657 135.52981252 -72.83886719 138.60644531 C-72.82925964 139.68065735 -72.8196521 140.75486938 -72.80975342 141.8616333 C-72.80550354 143.00557556 -72.80125366 144.14951782 -72.796875 145.328125 C-72.79117493 146.51347839 -72.78547485 147.69883179 -72.77960205 148.92010498 C-72.77017821 151.4180818 -72.7636285 153.9160709 -72.75976562 156.4140625 C-72.74999945 160.25021556 -72.71892676 164.08584618 -72.6875 167.921875 C-72.68097548 170.34895515 -72.67572285 172.77603913 -72.671875 175.203125 C-72.6595282 176.35516418 -72.6471814 177.50720337 -72.63446045 178.69415283 C-72.63746155 179.75575623 -72.64046265 180.81735962 -72.64355469 181.91113281 C-72.63808624 183.31628143 -72.63808624 183.31628143 -72.63250732 184.74981689 C-72.75377991 185.49237732 -72.87505249 186.23493774 -73 187 C-76.60892628 189.40595085 -79.26990833 189.30621199 -83.44140625 189.30078125 C-84.52662819 189.30720894 -84.52662819 189.30720894 -85.6337738 189.31376648 C-87.16103062 189.31950313 -88.68831475 189.32001492 -90.21557617 189.31567383 C-92.55759898 189.31250663 -94.89836709 189.336004 -97.24023438 189.36132812 C-98.72395674 189.36360041 -100.2076825 189.36430494 -101.69140625 189.36328125 C-102.39350723 189.372491 -103.09560822 189.38170074 -103.81898499 189.39118958 C-105.79125977 189.37231445 -105.79125977 189.37231445 -109 189 C-111.42218181 185.36672728 -111.24917805 183.6976763 -111.24723816 179.37138367 C-111.24965257 178.69422249 -111.25206699 178.01706132 -111.25455457 177.3193801 C-111.2602012 175.04444704 -111.25152053 172.76979361 -111.24291992 170.49487305 C-111.24399276 168.8651217 -111.24593146 167.23537073 -111.24867249 165.60562134 C-111.25353101 161.16847546 -111.2458468 156.73142979 -111.23571944 152.29429603 C-111.22692691 147.63474122 -111.22869681 142.97518946 -111.2290802 138.31562805 C-111.22814227 130.4695977 -111.21945118 122.6236059 -111.20581055 114.77758789 C-111.19018765 105.75922593 -111.18480884 96.7409065 -111.1855461 87.72253197 C-111.18622765 78.07779112 -111.17924107 68.43306628 -111.1700995 58.78833032 C-111.16798767 56.03637838 -111.16726093 53.2844291 -111.16686058 50.53247643 C-111.15748553 17.48110285 -111.15748553 17.48110285 -110.55200195 3.62426758 C-110.51341411 2.7322272 -110.47482626 1.84018682 -110.43506908 0.92111492 C-110.13240432 -4.86759568 -110.13240432 -4.86759568 -109 -6 C-106.58683379 -6.13799854 -104.20424512 -6.21305611 -101.7890625 -6.23828125 C-101.06512299 -6.246353 -100.34118347 -6.25442474 -99.5953064 -6.26274109 C-98.06030685 -6.27659495 -96.52527634 -6.28731127 -94.99023438 -6.29516602 C-92.6413336 -6.3123803 -90.29383988 -6.35625094 -87.9453125 -6.40039062 C-86.45573954 -6.41051716 -84.96615459 -6.41903339 -83.4765625 -6.42578125 C-82.42174179 -6.45204338 -82.42174179 -6.45204338 -81.34561157 -6.47883606 C-78.10934292 -6.46443027 -76.44209553 -6.41930084 -74.04443359 -4.14526367 C-72.80378416 -1.59697321 -72.76663947 0.19967368 -73 3 C-72.12859375 2.46890625 -71.2571875 1.9378125 -70.359375 1.390625 C-48.14024973 -11.88562398 -22.2247513 -15.84754603 0 0 Z " fill="#010101" transform="translate(948,113)"/>
<path d="M0 0 C1.50400746 1.0986902 2.98620689 2.22806171 4.44140625 3.390625 C6.29549794 4.92166747 6.29549794 4.92166747 8.9921875 4.80859375 C12.28154906 3.69145209 13.80055716 2.61106517 16.4296875 0.43359375 C28.02291239 -9.11607963 41.85202791 -10.44206968 56.3046875 -9.31640625 C68.1924556 -7.23604683 80.89022001 -2.28886503 88.3046875 7.68359375 C96.36377052 20.70498251 96.66744681 33.93098008 96.9296875 48.80859375 C96.94737183 49.6853476 96.96505615 50.56210144 96.98327637 51.46542358 C97.12493008 58.53777694 97.22204251 65.61032682 97.3046875 72.68359375 C97.3190686 73.88916931 97.33344971 75.09474487 97.3482666 76.33685303 C97.43681129 84.10396845 97.49932153 91.87082643 97.53485107 99.6383667 C97.54805207 102.20565621 97.56597972 104.77292587 97.58868408 107.34014893 C97.61845535 110.96126317 97.62832297 114.58190227 97.6328125 118.203125 C97.64510895 119.29090744 97.6574054 120.37868988 97.67007446 121.49943542 C97.6422576 130.98968378 97.6422576 130.98968378 94.3046875 134.68359375 C89.20158289 136.38462862 83.76708109 135.90890829 78.42578125 135.92382812 C76.31210353 135.93355961 74.19938821 135.96460845 72.0859375 135.99609375 C70.74219326 136.00262184 69.39844209 136.00787307 68.0546875 136.01171875 C66.83265625 136.02106445 65.610625 136.03041016 64.3515625 136.04003906 C61.3046875 135.68359375 61.3046875 135.68359375 59.63731384 134.65936279 C57.55075137 131.5657983 57.89950146 128.31944073 57.93579102 124.71484375 C57.9301413 123.49711021 57.9301413 123.49711021 57.92437744 122.254776 C57.91793866 120.49018509 57.91828092 118.7255595 57.92456245 116.96096802 C57.93367092 114.15986032 57.92344855 111.35942247 57.90794373 108.55834961 C57.8678576 100.593761 57.86662961 92.62922348 57.86889648 84.66455078 C57.86894786 79.79151489 57.84963573 74.91883622 57.81956291 70.04589844 C57.80880961 67.30118988 57.82083057 64.55718528 57.83338928 61.8125 C57.81182642 51.38641374 57.44791376 41.74088221 50.8046875 33.12109375 C46.65779471 29.07787328 43.76927037 28.39145949 37.9921875 28.37109375 C31.38578269 28.482188 27.38766792 29.37135844 22.0546875 33.37109375 C16.57466887 40.61254693 16.80589122 48.59728696 16.6796875 57.30859375 C16.64830604 58.70014273 16.61562562 60.0916629 16.58178711 61.4831543 C16.38581042 70.00385698 16.27622236 78.52623245 16.15216064 87.04821777 C16.07927225 91.96724545 16.00039828 96.88617326 15.92193604 101.80511475 C15.86756799 105.47044197 15.82566436 109.13577144 15.78466797 112.80126953 C15.75140081 115.08106092 15.71772762 117.36084643 15.68359375 119.640625 C15.67522995 120.69654343 15.66686615 121.75246185 15.6582489 122.84037781 C15.63321037 124.30348137 15.63321037 124.30348137 15.60766602 125.79614258 C15.59735855 126.64702957 15.58705109 127.49791656 15.57643127 128.37458801 C15.27542057 130.93227473 14.72985695 132.54073128 13.3046875 134.68359375 C8.21343067 136.38067936 2.80963588 135.98766126 -2.51928711 136.03369141 C-3.92668162 136.05027385 -5.33399112 136.077595 -6.7409668 136.11572266 C-8.77697091 136.17055007 -10.8110131 136.19236525 -12.84765625 136.20703125 C-14.06445068 136.22685059 -15.28124512 136.24666992 -16.53491211 136.26708984 C-19.6953125 135.68359375 -19.6953125 135.68359375 -21.86268616 133.69874573 C-24.33504679 129.63106271 -24.24190579 126.52829956 -24.17773438 121.85766602 C-24.18164688 120.97899872 -24.18555939 120.10033142 -24.18959045 119.19503784 C-24.19555742 117.29186786 -24.19240994 115.38865218 -24.1811676 113.48550606 C-24.16389805 110.47129758 -24.17141774 107.45804754 -24.1854248 104.4438324 C-24.21506758 96.95859707 -24.20188621 89.47354514 -24.19024658 81.98828125 C-24.18204068 75.66093708 -24.18999097 69.3340118 -24.21937561 63.00672722 C-24.22646516 60.04072316 -24.20979726 57.07545808 -24.19226074 54.10951233 C-24.19796938 52.28597619 -24.20478703 50.46244308 -24.21289062 48.63891602 C-24.20157608 47.81742569 -24.19026154 46.99593536 -24.17860413 46.14955139 C-24.23463667 40.86674054 -25.19328687 37.87195608 -28.6953125 33.68359375 C-35.31363799 28.68608267 -40.60481303 28.07170724 -48.6953125 28.68359375 C-54.29928541 29.91271792 -57.47342829 33.029761 -60.6953125 37.68359375 C-65.75608257 47.26290853 -64.85859246 58.22095474 -64.92510796 68.77298927 C-64.94168235 71.30785099 -64.96491854 73.84257413 -64.99000549 76.37736511 C-65.06037646 83.57759594 -65.12109576 90.77787763 -65.17211914 97.97827148 C-65.20389964 102.39778992 -65.2451517 106.81713718 -65.29231453 111.23651695 C-65.30831486 112.91620509 -65.32064552 114.59593237 -65.32922173 116.27567482 C-65.34137075 118.6186126 -65.3655122 120.9611459 -65.39233398 123.30395508 C-65.39292313 123.99544144 -65.39351227 124.6869278 -65.39411926 125.39936829 C-65.44834202 128.97233915 -65.61090563 131.71586629 -67.6953125 134.68359375 C-72.64148216 137.98104019 -78.25975354 137.01119396 -84.0703125 136.99609375 C-85.91882813 137.02026367 -85.91882813 137.02026367 -87.8046875 137.04492188 C-89.58746094 137.04588867 -89.58746094 137.04588867 -91.40625 137.046875 C-93.03506104 137.05134644 -93.03506104 137.05134644 -94.69677734 137.0559082 C-98.08476438 136.63523728 -99.9651069 135.70006228 -102.6953125 133.68359375 C-103.97789123 131.11843628 -103.82697728 129.29397415 -103.83575439 126.42080688 C-103.84431961 124.74673012 -103.84431961 124.74673012 -103.85305786 123.03883362 C-103.85417572 121.80866013 -103.85529358 120.57848663 -103.85644531 119.31103516 C-103.86141022 118.01994339 -103.86637512 116.72885162 -103.87149048 115.39863586 C-103.8846223 111.85107872 -103.89106092 108.30354051 -103.89550114 104.75596285 C-103.89843052 102.54043478 -103.90253506 100.3249119 -103.90700531 98.10938644 C-103.92068212 91.17996419 -103.93034795 84.25055377 -103.9342072 77.32111895 C-103.93868898 69.31749295 -103.95624155 61.31403764 -103.9852078 53.31046355 C-104.00681138 47.12696882 -104.01691077 40.94352217 -104.01824832 34.7599901 C-104.01929728 31.0654071 -104.02522419 27.37098452 -104.04306793 23.67644119 C-104.06258202 19.55583558 -104.05826497 15.43558805 -104.05175781 11.31494141 C-104.0609726 10.08881638 -104.07018738 8.86269135 -104.0796814 7.59941101 C-104.07411224 6.47772018 -104.06854309 5.35602936 -104.06280518 4.2003479 C-104.06427174 3.22584497 -104.0657383 2.25134205 -104.0672493 1.24730873 C-103.62826884 -1.77852999 -102.83362603 -3.15231431 -100.6953125 -5.31640625 C-97.66430664 -5.81811523 -97.66430664 -5.81811523 -93.98046875 -5.8125 C-93.32831894 -5.81395523 -92.67616913 -5.81541046 -92.0042572 -5.81690979 C-90.62657195 -5.81525183 -89.24886798 -5.80370153 -87.87133789 -5.78295898 C-85.7682374 -5.75404955 -83.66766606 -5.76233943 -81.56445312 -5.77539062 C-80.22394614 -5.76915124 -78.88344709 -5.76075872 -77.54296875 -5.75 C-76.32617432 -5.74025146 -75.10937988 -5.73050293 -73.85571289 -5.72045898 C-70.48518844 -5.28954219 -69.0416126 -4.74136134 -66.6953125 -2.31640625 C-66.4453125 0.37109375 -66.4453125 0.37109375 -66.6953125 2.68359375 C-66.16164063 2.38066406 -65.62796875 2.07773438 -65.078125 1.765625 C-60.9610759 -0.54932475 -56.82185847 -2.82170556 -52.6328125 -5.00390625 C-51.87871094 -5.39964844 -51.12460937 -5.79539062 -50.34765625 -6.203125 C-33.77320891 -13.15999907 -14.55285696 -9.93044495 0 0 Z " fill="#010101" transform="translate(725.6953125,112.31640625)"/>
<path d="M0 0 C14.9615847 11.07512891 21.67341318 26.2492064 24.828125 44.20385742 C25.53161106 49.34809926 25.60681962 54.45516836 25.61328125 59.640625 C25.63777344 60.70216797 25.66226563 61.76371094 25.6875 62.85742188 C25.69136719 63.87771484 25.69523438 64.89800781 25.69921875 65.94921875 C25.70743652 66.86372803 25.7156543 67.7782373 25.72412109 68.72045898 C25.23828125 71.203125 25.23828125 71.203125 23.79785156 73.4934082 C19.93311072 76.07494007 16.37990612 75.80622805 11.82421875 75.8125 C10.87713043 75.82908157 9.93004211 75.84566315 8.95425415 75.86274719 C5.8405289 75.91205987 2.72732061 75.93297065 -0.38671875 75.953125 C-2.53647726 75.98091303 -4.68621759 76.01014275 -6.8359375 76.04077148 C-13.47776198 76.12709035 -20.11943069 76.17153018 -26.76171875 76.203125 C-28.35542297 76.21088959 -28.35542297 76.21088959 -29.98132324 76.21881104 C-42.90836284 76.2765188 -55.83474209 76.26943288 -68.76171875 76.203125 C-68.13409279 77.80439999 -67.50326535 79.40442039 -66.87109375 81.00390625 C-66.52014648 81.89505127 -66.16919922 82.78619629 -65.80761719 83.7043457 C-62.80556028 90.87662686 -57.54279912 96.79563063 -50.55859375 100.3125 C-42.19730478 103.41143927 -34.78956399 102.9012431 -26.53515625 99.67578125 C-21.5602826 97.03419341 -17.78299663 93.0889343 -13.76171875 89.203125 C-9.39594533 85.55013091 -6.70939909 84.82301275 -1.2199707 84.91577148 C2.96278432 85.40470809 6.39560979 87.12027643 10.11328125 89.015625 C10.85835938 89.37205078 11.6034375 89.72847656 12.37109375 90.09570312 C18.78421277 93.23882351 18.78421277 93.23882351 21.23828125 96.203125 C20.47782083 107.1935887 11.06021402 117.13950776 3.23828125 124.203125 C-11.88189631 136.06041516 -29.42766482 137.78967913 -48.00878906 135.98486328 C-64.74664539 133.70752224 -81.99957268 125.60812719 -92.76171875 112.203125 C-108.1859668 90.99905894 -111.39240074 67.48591018 -108.328125 41.84375 C-105.98588931 28.98327578 -99.45315743 17.81739984 -90.76171875 8.203125 C-89.82199219 7.14158203 -89.82199219 7.14158203 -88.86328125 6.05859375 C-65.17287707 -19.22728663 -27.41377993 -17.83640561 0 0 Z " fill="#010101" transform="translate(448.76171875,115.796875)"/>
<path d="M0 0 C0.98355469 0.35191406 1.96710938 0.70382813 2.98046875 1.06640625 C16.40365034 6.22131629 25.6386051 13.55006449 31.921875 26.47265625 C34.69491872 32.97323337 35.29280001 38.27489882 35.2746582 45.2722168 C35.27976913 46.29239899 35.28488007 47.31258118 35.29014587 48.36367798 C35.30401266 51.72558504 35.30308795 55.08728655 35.30078125 58.44921875 C35.30466839 60.78758317 35.30900309 63.12594689 35.31376648 65.46430969 C35.32122139 70.35912367 35.32094164 75.25386549 35.31567383 80.14868164 C35.30986532 86.43042809 35.3268472 92.71188103 35.3500185 98.99357891 C35.36472255 103.81903315 35.36563234 108.64441602 35.36250877 113.46988869 C35.36302317 115.78680823 35.36828303 118.10373164 35.37832069 120.4206295 C35.39060974 123.65260547 35.38393977 126.88400065 35.37231445 130.1159668 C35.37995819 131.07758224 35.38760193 132.03919769 35.39547729 133.029953 C35.38846298 133.90889221 35.38144867 134.78783142 35.3742218 135.69340515 C35.37438954 136.45715297 35.37455729 137.22090078 35.37473011 138.00779247 C34.8950805 140.55779188 34.04518326 141.44413681 32 143 C29.22851563 143.38818359 29.22851563 143.38818359 25.90625 143.3984375 C24.71128906 143.40230469 23.51632812 143.40617188 22.28515625 143.41015625 C21.03605469 143.39855469 19.78695312 143.38695312 18.5 143.375 C17.25089844 143.38660156 16.00179687 143.39820313 14.71484375 143.41015625 C12.92240234 143.40435547 12.92240234 143.40435547 11.09375 143.3984375 C9.99740234 143.39505371 8.90105469 143.39166992 7.77148438 143.38818359 C5 143 5 143 3.16210938 141.64306641 C1.65040432 139.50571871 1.34713097 137.56876915 1 135 C-2.64310954 135.64539936 -5.10457849 137.24979705 -8.1875 139.25 C-21.80340168 147.26421397 -37.02346302 150.32264368 -52.60546875 147.30078125 C-63.72024928 144.21261831 -75.00295864 138.33871607 -81.10400391 128.15771484 C-87.95606714 115.76028834 -91.37592412 104.54396117 -87.8125 90.25 C-84.36847426 79.31482149 -78.37642268 71.29140747 -68.1875 65.6875 C-56.08491549 60.47129854 -42.63429166 59.69786834 -29.68237305 58.27319336 C-16.3535893 56.91115821 -16.3535893 56.91115821 -4 52 C-3.9189794 49.89646505 -3.86080093 47.79204048 -3.8125 45.6875 C-3.77769531 44.51574219 -3.74289062 43.34398437 -3.70703125 42.13671875 C-3.73964754 39.07167638 -3.73964754 39.07167638 -5.2265625 37.1875 C-11.50518602 32.98331157 -19.65107843 32.14301713 -27 33 C-36.37592209 34.98277697 -42.3780365 39.51538471 -47.73828125 47.328125 C-49 49 -49 49 -51 50 C-55.09804469 50.29695976 -59.2049624 50.27806005 -63.3125 50.3125 C-64.45396484 50.34150391 -65.59542969 50.37050781 -66.77148438 50.40039062 C-75.13835766 50.46396126 -75.13835766 50.46396126 -79.25 48.25 C-81.79600942 44.97655931 -81.76386843 43.08483596 -81.54296875 39.04296875 C-79.24201599 26.14770114 -72.67682328 15.00445996 -62.1875 7.125 C-45.38942308 -3.7173951 -18.85413662 -7.1239454 0 0 Z " fill="#010101" transform="translate(568,105)"/>
<path d="M0 0 C2.56303012 2.4810208 2.98997054 3.90637878 3.37473011 7.49796391 C3.38991934 8.92784763 3.38852409 10.35796419 3.3742218 11.78785706 C3.37819621 12.57728366 3.38217061 13.36671027 3.38626546 14.1800589 C3.39589781 16.82798558 3.38406486 19.47537923 3.37231445 22.12329102 C3.37474209 24.02046915 3.37846114 25.91764601 3.38337708 27.81481934 C3.39279289 32.96964633 3.38335513 38.12428369 3.37004495 43.27909589 C3.3587418 48.66823692 3.36283703 54.05736847 3.36479187 59.44651794 C3.36567513 68.49619654 3.35458714 77.54580027 3.33618164 86.59545898 C3.31500716 97.06671195 3.31150531 107.53785526 3.3177436 118.00912529 C3.32343266 128.07276331 3.31779741 138.13636261 3.30657005 148.19999504 C3.30191865 152.48742321 3.30105254 156.77482775 3.3031559 161.06225777 C3.30503567 166.10767501 3.29695893 171.1529802 3.2810955 176.19837189 C3.27684301 178.0531639 3.27600855 179.90796726 3.27878571 181.76276207 C3.28199427 184.28834102 3.27295939 186.81358236 3.26069641 189.33912659 C3.2663654 190.44835561 3.2663654 190.44835561 3.27214891 191.57999331 C3.24025263 195.27595433 3.10756389 196.83865417 1 200 C-4.35854199 201.78618066 -10.17531383 201.18591251 -15.78833008 201.18530273 C-18.05764347 201.18749531 -20.32647533 201.20568071 -22.59570312 201.22460938 C-24.0338525 201.22754231 -25.47200419 201.22952777 -26.91015625 201.23046875 C-28.22121338 201.23457764 -29.53227051 201.23868652 -30.88305664 201.24291992 C-34 201 -34 201 -36 199 C-36.19971174 196.41117338 -36.27366648 193.92896158 -36.26069641 191.33876038 C-36.26452196 190.53879196 -36.26834751 189.73882355 -36.27228898 188.91461366 C-36.28265362 186.21913305 -36.27862031 183.52386407 -36.2746582 180.82836914 C-36.27900277 178.90192974 -36.28418505 176.97549208 -36.29014587 175.04905701 C-36.30357468 169.80532023 -36.30411024 164.56165535 -36.30158257 159.31790471 C-36.30051548 154.94638879 -36.30538951 150.57488758 -36.310188 146.2033748 C-36.32129662 135.89346597 -36.32171299 125.58359357 -36.31567383 115.27368164 C-36.30963178 104.62408605 -36.32194784 93.97462251 -36.3432439 83.32504946 C-36.36083489 74.19381905 -36.36686522 65.06263077 -36.36360615 55.93138403 C-36.36178914 50.47237304 -36.36447096 45.01345623 -36.37832069 39.55446053 C-36.39085378 34.42204348 -36.38899796 29.28983291 -36.37590981 24.1574192 C-36.37353457 22.27037233 -36.37631235 20.38331113 -36.38453293 18.49628067 C-36.39492246 15.92668524 -36.3869631 13.35779266 -36.3742218 10.78822327 C-36.38159609 10.03570016 -36.38897037 9.28317706 -36.39656812 8.50785023 C-36.34379139 3.47308856 -36.34379139 3.47308856 -34.58940411 1.05889034 C-26.03804496 -4.63818291 -9.18879406 -3.39377063 0 0 Z " fill="#010101" transform="translate(324,47)"/>
<path d="M0 0 C1.76953125 1.671875 1.76953125 1.671875 3.5 3.5625 C4.52673828 4.56023437 4.52673828 4.56023437 5.57421875 5.578125 C15.8227032 16.11076336 18.89752547 28.67237045 18.87084961 42.9753418 C18.55636448 54.98235759 14.86220875 66.720858 6.58203125 75.625 C-1.15532299 82.80861709 -7.29706503 84.13533544 -17.76171875 83.91796875 C-25.6798292 83.16504498 -32.5255063 80.17487541 -37.765625 74.09375 C-47.06634299 61.31926987 -46.99277884 42.59634732 -45.5 27.5625 C-43.90656996 18.29678936 -40.09302205 7.66074979 -32.29296875 1.9453125 C-23.88287488 -2.99195654 -8.5256513 -6.16025104 0 0 Z " fill="#FCFCFC" transform="translate(918.5,137.4375)"/>
<path d="M0 0 C0.69833929 10.02892816 -0.79304904 18.5566718 -7.375 26.4375 C-12.85683302 32.17813201 -17.78835122 35.09006214 -25.90332031 35.29248047 C-35.26523319 35.37453229 -40.80434202 34.67120073 -48 28.375 C-50.69487394 23.82740023 -50.93320163 20.16717196 -50 15 C-46.83618246 9.49261391 -42.23939317 7.18864704 -36.26293945 5.52856445 C-31.31474637 4.37279382 -26.2711111 3.6973114 -21.25 2.9375 C-19.00485723 2.59473984 -16.76004736 2.24978992 -14.515625 1.90234375 C-13.52852539 1.75273193 -12.54142578 1.60312012 -11.52441406 1.44897461 C-3.00225576 -0.06671679 -3.00225576 -0.06671679 0 0 Z " fill="#F9F8F9" transform="translate(567,186)"/>
<path d="M0 0 C5.09004674 3.88239066 9.70778703 8.74098979 12.22265625 14.6953125 C12.47265625 17.3203125 12.47265625 17.3203125 12.22265625 19.6953125 C10.22265625 21.6953125 10.22265625 21.6953125 7.93209839 21.93582153 C6.97723541 21.93138031 6.02237244 21.92693909 5.03857422 21.92236328 C3.95760468 21.92221222 2.87663513 21.92206116 1.76290894 21.92190552 C0.59204742 21.91158295 -0.57881409 21.90126038 -1.78515625 21.890625 C-2.98091278 21.8877951 -4.17666931 21.88496521 -5.40866089 21.88204956 C-9.23998894 21.87082555 -13.07108597 21.84571681 -16.90234375 21.8203125 C-19.4947883 21.81028558 -22.0872365 21.80115923 -24.6796875 21.79296875 C-31.04565217 21.77087896 -37.41148146 21.73737956 -43.77734375 21.6953125 C-43.89424089 13.95312499 -42.19420307 10.34530508 -36.9453125 4.73828125 C-26.95829644 -4.6183906 -12.22481157 -7.14304516 0 0 Z " fill="#FBFBFB" transform="translate(423.77734375,139.3046875)"/>
</svg>
