<?xml version="1.0" encoding="UTF-8"?>
<svg version="1.1" xmlns="http://www.w3.org/2000/svg" width="1024" height="341">
<path d="M0 0 C337.92 0 675.84 0 1024 0 C1024 112.53 1024 225.06 1024 341 C686.08 341 348.16 341 0 341 C0 228.47 0 115.94 0 0 Z " fill="#000000" transform="translate(0,0)"/>
<path d="M0 0 C4.46388919 4.06052571 4.46388919 4.06052571 5.12890625 7.8359375 C4.46518229 12.09526844 2.31988067 14.26410786 -0.6171875 17.20703125 C-1.15351807 17.76438965 -1.68984863 18.32174805 -2.24243164 18.89599609 C-18.01819547 35.10161098 -18.01819547 35.10161098 -24.3671875 38.01953125 C-29.0573856 37.97457727 -31.82870844 35.28961429 -35.2421875 32.39453125 C-42.09006168 26.8668725 -49.24376922 23.31280893 -57.3671875 20.01953125 C-58.181875 19.65859375 -58.9965625 19.29765625 -59.8359375 18.92578125 C-74.67291543 13.28355021 -93.27670998 16.97220166 -107.3671875 23.01953125 C-122.28489847 30.43304415 -134.7853311 43.22070802 -140.3671875 59.01953125 C-142.89490367 66.65727405 -143.81446415 73.55473424 -143.6796875 81.58203125 C-143.68291016 82.54560547 -143.68613281 83.50917969 -143.68945312 84.50195312 C-143.55858697 102.14508959 -137.0288624 121.35785635 -124.3671875 134.01953125 C-111.44097807 145.04831544 -97.97483424 150.43903245 -81.0546875 150.33203125 C-80.13115479 150.3271167 -79.20762207 150.32220215 -78.25610352 150.31713867 C-71.2613613 150.19733413 -64.98297316 149.3981325 -58.3671875 147.01953125 C-57.38878906 146.69082031 -56.41039062 146.36210937 -55.40234375 146.0234375 C-42.96220983 141.39641214 -33.26822271 134.04722949 -27.3671875 122.01953125 C-26.15836057 119.05790526 -25.22659747 116.09677339 -24.3671875 113.01953125 C-23.70472987 111.01813315 -23.03845127 109.01799301 -22.3671875 107.01953125 C-22.9744014 107.0284137 -23.5816153 107.03729614 -24.20722961 107.04644775 C-30.51720787 107.13482249 -36.82701087 107.19522432 -43.13745117 107.23925781 C-45.49364358 107.25939482 -47.84978589 107.28670641 -50.20581055 107.32128906 C-53.58915556 107.36971412 -56.9718409 107.39247921 -60.35546875 107.41015625 C-61.93996574 107.44112396 -61.93996574 107.44112396 -63.55647278 107.47271729 C-64.53726303 107.47301941 -65.51805328 107.47332153 -66.52856445 107.47363281 C-67.39238235 107.48251526 -68.25620026 107.49139771 -69.14619446 107.50054932 C-71.3671875 107.01953125 -71.3671875 107.01953125 -73.10710144 105.1786499 C-76.35539903 99.61279203 -75.58999317 93.38010251 -75.60742188 87.140625 C-75.61715336 85.02694728 -75.6482022 82.91423196 -75.6796875 80.80078125 C-75.68621559 79.45703701 -75.69146682 78.11328584 -75.6953125 76.76953125 C-75.7046582 75.5475 -75.71400391 74.32546875 -75.72363281 73.06640625 C-75.3671875 70.01953125 -75.3671875 70.01953125 -74.0816946 68.35333157 C-71.09462859 66.0295444 -67.37116718 66.59585662 -63.73657227 66.61547852 C-62.85498444 66.60861526 -61.97339661 66.60175201 -61.06509399 66.59468079 C-58.1460975 66.57635472 -55.22763552 66.58025861 -52.30859375 66.5859375 C-50.28221969 66.58137838 -48.25584718 66.57607362 -46.22947693 66.5700531 C-41.97998783 66.56111051 -37.73068654 66.56355808 -33.48120117 66.57348633 C-28.03224187 66.58497559 -22.58393063 66.56477084 -17.1350565 66.53556919 C-12.94947686 66.51723306 -8.76405324 66.51749452 -4.57844353 66.52320671 C-2.56936675 66.52336025 -0.5602796 66.51728889 1.44875908 66.50491524 C4.25718844 66.49005648 7.06441143 66.50064463 9.87280273 66.51782227 C11.12053719 66.50332031 11.12053719 66.50332031 12.39347839 66.48852539 C16.00795623 66.53487763 18.18569341 66.69328802 21.14697266 68.85400391 C23.24831938 71.91659764 23.16649449 74.19617707 23.19921875 77.890625 C23.20745667 78.56092239 23.21569458 79.23121979 23.22418213 79.92182922 C23.23994328 82.10105937 23.22097893 84.27791825 23.1953125 86.45703125 C23.19171722 87.19884644 23.18812195 87.94066162 23.18441772 88.70495605 C23.09647998 101.3440864 21.64426504 112.97385783 17.6328125 125.01953125 C17.24867188 126.21835938 16.86453125 127.4171875 16.46875 128.65234375 C8.47466384 151.22068222 -6.33960967 170.61078498 -25.3671875 185.01953125 C-25.88764648 185.41495117 -26.40810547 185.81037109 -26.94433594 186.21777344 C-44.6534142 199.56573978 -68.39300468 216.26035078 -91.3671875 216.01953125 C-92.94334051 214.44337824 -92.54949192 212.80299228 -92.61328125 210.6171875 C-92.64615234 209.72708984 -92.67902344 208.83699219 -92.71289062 207.91992188 C-92.77395836 206.03201941 -92.83126637 204.14399148 -92.88476562 202.25585938 C-92.91892578 201.36447266 -92.95308594 200.47308594 -92.98828125 199.5546875 C-93.0133374 198.73363525 -93.03839355 197.91258301 -93.06420898 197.06665039 C-93.19232138 194.79708972 -93.19232138 194.79708972 -95.3671875 193.01953125 C-97.25133104 192.67669331 -99.15149169 192.42005809 -101.0546875 192.20703125 C-128.03814656 188.34376068 -151.87205668 172.40337539 -168.37158203 151.08496094 C-177.52418755 138.66382401 -184.0615966 124.06818814 -187.3671875 109.01953125 C-187.59019531 108.06046875 -187.81320313 107.10140625 -188.04296875 106.11328125 C-194.21511138 74.20288399 -185.39250336 42.79363094 -167.92138672 16.03369141 C-151.8344285 -7.62599072 -125.28754665 -22.99100348 -97.51953125 -28.421875 C-95.95912109 -28.69837891 -95.95912109 -28.69837891 -94.3671875 -28.98046875 C-93.62597656 -29.11324219 -92.88476562 -29.24601562 -92.12109375 -29.3828125 C-57.34751204 -34.33109996 -26.30976391 -22.01163416 0 0 Z " fill="#FDFDFD" transform="translate(252.3671875,68.98046875)"/>
<path d="M0 0 C0.94101562 0.31839844 1.88203125 0.63679688 2.8515625 0.96484375 C18.93291539 7.01061819 28.38916943 18.56611532 35.33886719 33.81445312 C44.73734359 55.07223561 47.33946376 80.93677274 38.83447266 102.97509766 C31.00039844 121.98498985 21.23053032 136.43246718 2 145 C0.79923828 145.54720703 0.79923828 145.54720703 -0.42578125 146.10546875 C-13.48861913 150.64475536 -29.84303355 148.89727955 -42.15625 143.08984375 C-46.14804664 141.14044486 -50.07569905 139.08147044 -54 137 C-55.33079693 136.32828446 -56.66259772 135.65846592 -58 135 C-57.75769653 136.11145386 -57.75769653 136.11145386 -57.51049805 137.24536133 C-56.79249223 142.52618935 -56.83732589 147.7505181 -56.83203125 153.07421875 C-56.82703865 154.81539726 -56.82703865 154.81539726 -56.82194519 156.5917511 C-56.8168939 159.0384583 -56.81453631 161.48517236 -56.81469727 163.93188477 C-56.81250174 167.68452137 -56.79430214 171.43686814 -56.77539062 175.18945312 C-56.7724582 177.56770733 -56.7704724 179.94596293 -56.76953125 182.32421875 C-56.76234573 183.44922287 -56.75516022 184.57422699 -56.74775696 185.73332214 C-56.75083359 186.77482925 -56.75391022 187.81633636 -56.75708008 188.8894043 C-56.75565506 189.80618454 -56.75423004 190.72296478 -56.75276184 191.66752625 C-57 194 -57 194 -59 197 C-61.60077352 197.30441916 -63.95983401 197.42017445 -66.5625 197.3984375 C-67.30959229 197.40130768 -68.05668457 197.40417786 -68.82641602 197.40713501 C-70.40674599 197.40917747 -71.98710113 197.40363481 -73.56738281 197.39111328 C-75.99080764 197.37506089 -78.41256474 197.39095439 -80.8359375 197.41015625 C-82.36979536 197.40817385 -83.90365218 197.40433023 -85.4375 197.3984375 C-86.16461182 197.40451019 -86.89172363 197.41058289 -87.64086914 197.4168396 C-89.68359375 197.38818359 -89.68359375 197.38818359 -93 197 C-95.44121444 193.33817833 -95.24915467 191.60299959 -95.24723816 187.23730469 C-95.25085978 186.20001189 -95.25085978 186.20001189 -95.25455457 185.14176369 C-95.26020171 182.81837213 -95.25152026 180.49525432 -95.24291992 178.171875 C-95.24399271 176.50769984 -95.24593135 174.84352505 -95.24867249 173.17935181 C-95.25353048 168.64943588 -95.24584848 164.11961812 -95.23571944 159.58971405 C-95.22693095 154.83666599 -95.2286967 150.08362094 -95.2290802 145.33056641 C-95.2281424 137.33071253 -95.21945133 129.33089646 -95.20581055 121.33105469 C-95.19016969 112.12518096 -95.18480947 102.9193489 -95.1855461 93.71346283 C-95.18622648 83.87800421 -95.17924828 74.04256136 -95.1700995 64.20710754 C-95.16798382 61.39502908 -95.16726041 58.58295321 -95.16686058 55.77087402 C-95.1658418 51.31230569 -95.15962297 46.85377118 -95.14969444 42.39521408 C-95.14681835 40.77451154 -95.14553388 39.15380511 -95.14612198 37.53310013 C-95.14808286 28.82463329 -94.98058513 20.14278968 -94.55342102 11.44384766 C-94.51474511 10.61503271 -94.47606921 9.78621777 -94.4362213 8.93228722 C-94.12166633 3.12166633 -94.12166633 3.12166633 -93 2 C-90.58683379 1.86200146 -88.20424512 1.78694389 -85.7890625 1.76171875 C-85.06512299 1.753647 -84.34118347 1.74557526 -83.5953064 1.73725891 C-82.06030685 1.72340505 -80.52527634 1.71268873 -78.99023438 1.70483398 C-76.6413336 1.6876197 -74.29383988 1.64374906 -71.9453125 1.59960938 C-70.45573954 1.58948284 -68.96615459 1.58096661 -67.4765625 1.57421875 C-66.42174179 1.54795662 -66.42174179 1.54795662 -65.34561157 1.52116394 C-62.10934292 1.53556973 -60.44209553 1.58069916 -58.04443359 3.85473633 C-56.80378416 6.40302679 -56.76663947 8.19967368 -57 11 C-56.01902344 10.39671875 -55.03804687 9.7934375 -54.02734375 9.171875 C-37.82049719 -0.53926584 -18.70525307 -6.44892299 0 0 Z " fill="#FDFDFD" transform="translate(932,105)"/>
<path d="M0 0 C1.50400746 1.0986902 2.98620689 2.22806171 4.44140625 3.390625 C6.29549794 4.92166747 6.29549794 4.92166747 8.9921875 4.80859375 C12.28154906 3.69145209 13.80055716 2.61106517 16.4296875 0.43359375 C28.28686474 -9.33350479 42.44301095 -10.45538754 57.15234375 -9.04296875 C69.41744329 -6.92898411 81.01534959 -1.17242782 88.921875 8.5703125 C95.10190952 18.01494153 96.36569287 27.88897803 96.62109375 38.90234375 C96.64205612 39.69405975 96.66301849 40.48577576 96.68461609 41.30148315 C96.75134351 43.92875069 96.81033646 46.55609465 96.8671875 49.18359375 C96.88736938 50.09312805 96.90755127 51.00266235 96.92834473 51.9397583 C97.27533809 68.05130686 97.46569268 84.16545925 97.53585815 100.28051758 C97.54839011 102.79503304 97.5658906 105.30952875 97.58840942 107.82397461 C97.61819715 111.36844988 97.6281772 114.91244515 97.6328125 118.45703125 C97.64511398 119.51977264 97.65741547 120.58251404 97.67008972 121.67745972 C97.64263558 130.81234599 97.64263558 130.81234599 94.3046875 134.68359375 C89.90476794 136.88355353 83.96516329 135.91069301 79.07397461 135.92382812 C76.87901017 135.93354143 74.68497928 135.96456784 72.49023438 135.99609375 C71.09635973 136.00262323 69.70247839 136.00787392 68.30859375 136.01171875 C67.03830322 136.02106445 65.7680127 136.03041016 64.45922852 136.04003906 C61.3046875 135.68359375 61.3046875 135.68359375 59.63157654 134.65461731 C57.56253894 131.58117127 57.89092079 128.37080171 57.91992188 124.79077148 C57.9145491 123.98709641 57.90917633 123.18342133 57.90364075 122.35539246 C57.89385343 120.60881899 57.89092148 118.86219685 57.89399719 117.11559868 C57.89847469 114.34416959 57.88447359 111.57337937 57.86560059 108.80201721 C57.82877769 102.90838666 57.81511888 97.01482235 57.8046875 91.12109375 C57.79258355 84.31352628 57.77082588 77.50626832 57.72468567 70.69883919 C57.71119397 67.98134567 57.7152739 65.26425109 57.72009277 62.54673767 C57.68101631 50.20281917 57.1617304 39.54063665 47.9296875 30.30859375 C41.59816114 27.47032331 34.45183454 27.60864306 27.7578125 29.34375 C22.59579596 31.58515192 20.56531273 34.61979324 18.3046875 39.68359375 C17.32890498 42.8458519 17.12727709 45.80359067 17.0234375 49.10546875 C16.98694092 50.24983398 16.95044434 51.39419922 16.9128418 52.57324219 C16.85930542 54.48411621 16.85930542 54.48411621 16.8046875 56.43359375 C16.76163751 57.79069528 16.71841843 59.14779146 16.67504883 60.50488281 C16.41465285 69.11036709 16.27208086 77.71386976 16.19467163 86.32293701 C16.14839967 91.41481697 16.08871104 96.50651951 16.02978516 101.5982666 C16.00471746 104.15541556 15.98697801 106.71264685 15.9765625 109.26989746 C15.96149772 112.90298194 15.92242424 116.53512946 15.87890625 120.16796875 C15.8818293 121.82227905 15.8818293 121.82227905 15.8848114 123.51000977 C15.86828018 124.52861084 15.85174896 125.54721191 15.8347168 126.59667969 C15.82591743 127.93082916 15.82591743 127.93082916 15.81694031 129.29193115 C15.13452049 132.47808832 13.83089009 133.68581509 11.3046875 135.68359375 C8.06835938 136.21704102 8.06835938 136.21704102 4.2734375 136.25 C3.60050659 136.25619858 2.92757568 136.26239716 2.23425293 136.26878357 C0.81552574 136.27586816 -0.60328482 136.27273126 -2.02197266 136.26000977 C-4.18938416 136.24613171 -6.35248367 136.28023311 -8.51953125 136.31835938 C-9.90104272 136.31931058 -11.28255958 136.31745166 -12.6640625 136.3125 C-14.54254883 136.31358765 -14.54254883 136.31358765 -16.45898438 136.31469727 C-19.6953125 135.68359375 -19.6953125 135.68359375 -21.86643982 133.69003296 C-24.32310554 129.65158007 -24.24911111 126.5876599 -24.19360352 121.94946289 C-24.19912231 121.08054916 -24.20464111 120.21163544 -24.21032715 119.31639099 C-24.21963493 117.43451761 -24.21976242 115.55258125 -24.21173286 113.67070198 C-24.19909728 110.69009608 -24.21039796 107.71041548 -24.22776794 104.72984314 C-24.25447235 99.47631378 -24.26006356 94.22301128 -24.25866699 88.96942139 C-24.25643883 80.56433238 -24.27058073 72.15952437 -24.31425285 63.75454521 C-24.32408252 60.82189514 -24.31537802 57.88968741 -24.30555725 54.95704651 C-24.31170278 53.15373445 -24.31861496 51.35042479 -24.32641602 49.54711914 C-24.31869675 48.73497955 -24.31097748 47.92283997 -24.30302429 47.08609009 C-24.34643169 42.21511331 -25.0341123 38.91866474 -27.6953125 34.68359375 C-33.30515874 29.36900257 -38.45334381 28.2655985 -45.9765625 28.4375 C-51.37277473 28.92595025 -54.54210006 30.53038131 -58.4453125 34.43359375 C-65.74416142 44.97637552 -64.83048145 56.65388672 -64.83341217 68.92761993 C-64.83776181 73.2708327 -64.86883854 77.61390198 -64.89453125 81.95703125 C-64.92494217 87.46326308 -64.94762166 92.96926207 -64.94580078 98.47558594 C-64.94501413 102.94716661 -64.96834043 107.41805727 -65.0076828 111.8894577 C-65.01813603 113.58785653 -65.01967178 115.28633503 -65.01203156 116.98474884 C-65.0024148 119.35680731 -65.02357229 121.72676428 -65.05175781 124.09863281 C-65.04156113 124.79587463 -65.03136444 125.49311646 -65.02085876 126.21148682 C-65.10208608 130.02671794 -65.6315796 131.60414114 -68.05010986 134.61920166 C-71.26215 137.12597001 -72.87858764 137.30400454 -76.9140625 137.27734375 C-78.09355469 137.27476562 -79.27304687 137.2721875 -80.48828125 137.26953125 C-82.32326172 137.22699219 -82.32326172 137.22699219 -84.1953125 137.18359375 C-85.41863281 137.18617188 -86.64195312 137.18875 -87.90234375 137.19140625 C-98.06796692 137.08030654 -98.06796692 137.08030654 -102.6953125 133.68359375 C-103.98326281 131.10769312 -103.82701777 129.261499 -103.83575439 126.37611389 C-103.84146454 125.2502034 -103.84717468 124.12429291 -103.85305786 122.96426392 C-103.85417572 121.72316864 -103.85529358 120.48207336 -103.85644531 119.20336914 C-103.86141022 117.90091751 -103.86637512 116.59846588 -103.87149048 115.25654602 C-103.88462173 111.67806527 -103.89106063 108.09960328 -103.89550114 104.52110219 C-103.8984302 102.28682085 -103.90253464 100.05254466 -103.90700531 97.81826591 C-103.92068105 90.83171457 -103.9303478 83.84517497 -103.9342072 76.85861117 C-103.93869079 68.78592522 -103.95625218 60.71340835 -103.9852078 52.64077383 C-104.00679908 46.40549052 -104.01691008 40.17025487 -104.01824832 33.93493456 C-104.01929803 30.208526 -104.02524094 26.48227636 -104.04306793 22.75590706 C-104.06255572 18.60157064 -104.0582699 14.44758986 -104.05175781 10.29321289 C-104.06557999 8.43460632 -104.06557999 8.43460632 -104.0796814 6.53845215 C-104.07411224 5.40972183 -104.06854309 4.28099152 -104.06280518 3.11805725 C-104.06427174 2.13525819 -104.0657383 1.15245913 -104.0672493 0.13987827 C-103.6953125 -2.31640625 -103.6953125 -2.31640625 -102.35505295 -4.13179874 C-99.74402532 -5.995369 -97.39873168 -5.7056717 -94.234375 -5.71484375 C-92.95820312 -5.71871094 -91.68203125 -5.72257812 -90.3671875 -5.7265625 C-89.70267578 -5.72027832 -89.03816406 -5.71399414 -88.35351562 -5.70751953 C-86.3339418 -5.69151426 -84.31638523 -5.70734315 -82.296875 -5.7265625 C-81.018125 -5.72269531 -79.739375 -5.71882813 -78.421875 -5.71484375 C-77.25221191 -5.71145996 -76.08254883 -5.70807617 -74.87744141 -5.70458984 C-71.38094996 -5.27805759 -69.45859512 -4.47933856 -66.6953125 -2.31640625 C-66.3828125 0.37109375 -66.3828125 0.37109375 -66.6953125 2.68359375 C-66.16164063 2.38066406 -65.62796875 2.07773438 -65.078125 1.765625 C-60.9610759 -0.54932475 -56.82185847 -2.82170556 -52.6328125 -5.00390625 C-51.87871094 -5.39964844 -51.12460937 -5.79539062 -50.34765625 -6.203125 C-33.77320891 -13.15999907 -14.55285696 -9.93044495 0 0 Z " fill="#FDFDFD" transform="translate(725.6953125,112.31640625)"/>
<path d="M0 0 C13.03043741 11.00293102 21.06125096 25.93869629 22.75 42.94604492 C23.11368766 47.89986858 23.20433261 52.84693219 23.25 57.8125 C23.27900391 58.88306641 23.30800781 59.95363281 23.33789062 61.05664062 C23.34626953 62.08595703 23.35464844 63.11527344 23.36328125 64.17578125 C23.38515503 65.5666394 23.38515503 65.5666394 23.4074707 66.9855957 C22.77348448 70.37750433 21.64135911 71.38230373 18.9375 73.5 C15.83747864 74.01225281 15.83747864 74.01225281 12.14379883 74.0300293 C11.46826462 74.03876068 10.79273041 74.04749207 10.09672546 74.05648804 C7.86239058 74.08087992 5.62898264 74.07744813 3.39453125 74.07421875 C1.82670035 74.08668084 0.25888335 74.10101973 -1.30891418 74.11714172 C-5.44687735 74.15521749 -9.58460196 74.17035013 -13.72271729 74.17993164 C-19.49919905 74.19723026 -25.27551524 74.244865 -31.05183411 74.28999329 C-34.12175917 74.31395102 -37.19151389 74.32918776 -40.26152039 74.33683777 C-50.22466717 74.37741024 -60.12282218 74.8209709 -70.0625 75.5 C-68.23527948 85.20009664 -63.03316629 91.78366357 -55.0625 97.5 C-48.55698909 101.27167753 -41.57046649 101.46737478 -34.33203125 99.9140625 C-26.60911612 97.53945672 -21.78046658 93.02534004 -16.0625 87.5 C-11.69672658 83.84700591 -9.01018034 83.11988775 -3.52075195 83.21264648 C0.66200307 83.70158309 4.09482854 85.41715143 7.8125 87.3125 C8.55757813 87.66892578 9.30265625 88.02535156 10.0703125 88.39257812 C16.55595393 91.57124231 16.55595393 91.57124231 18.9375 94.5 C18.47852325 104.99909309 9.13268022 114.56560061 1.9375 121.5 C-12.42363201 133.79926665 -28.96351468 135.43115969 -47.0625 134.5 C-66.40668059 132.77403216 -83.33908659 124.15417435 -95.96484375 109.3515625 C-109.77752764 90.57454343 -114.37421636 66.78319916 -111.3125 43.875 C-108.48672484 27.79731374 -101.5659215 15.04248236 -90.0625 3.5 C-89.37542969 2.78972656 -88.68835938 2.07945313 -87.98046875 1.34765625 C-64.05601601 -21.77783517 -25.4187454 -18.81591341 0 0 Z " fill="#FDFDFD" transform="translate(451.0625,117.5)"/>
<path d="M0 0 C6.6922573 5.49587611 11.2229383 11.56813455 14.09765625 19.72265625 C14.43826584 20.54473572 14.77887543 21.36681519 15.12980652 22.21380615 C16.42146771 26.89660489 16.38471005 31.26689756 16.37231445 36.10253906 C16.37742538 37.13408112 16.38253632 38.16562317 16.38780212 39.22842407 C16.40166884 42.6276026 16.40074435 46.02657786 16.3984375 49.42578125 C16.40232435 51.78896154 16.406659 54.15214114 16.41142273 56.51531982 C16.41887741 61.46140818 16.41859785 66.40742512 16.41333008 71.35351562 C16.4075185 77.70486146 16.42451093 84.05591729 16.44767475 90.40721512 C16.46236883 95.28324096 16.46329002 100.15919611 16.46016502 105.03524017 C16.46067983 107.37810595 16.46594714 109.72097552 16.47597694 112.06381989 C16.48824814 115.32952588 16.48160719 118.59465551 16.4699707 121.86035156 C16.47761444 122.83491302 16.48525818 123.80947449 16.49313354 124.81356812 C16.48611923 125.69954681 16.47910492 126.58552551 16.47187805 127.49835205 C16.47204579 128.270396 16.47221354 129.04243996 16.47238636 129.83787918 C16.28689496 130.77084383 16.28689496 130.77084383 16.09765625 131.72265625 C11.12743156 135.03613937 5.43562032 134.05021808 -0.40234375 134.03515625 C-2.27599609 134.05932617 -2.27599609 134.05932617 -4.1875 134.08398438 C-5.38246094 134.08462891 -6.57742188 134.08527344 -7.80859375 134.0859375 C-9.45311523 134.09040894 -9.45311523 134.09040894 -11.13085938 134.0949707 C-13.90234375 133.72265625 -13.90234375 133.72265625 -15.74023438 132.36791992 C-17.25085909 130.22924346 -17.55513425 128.29200655 -17.90234375 125.72265625 C-21.61956143 126.3817374 -24.27984227 128.05460273 -27.46484375 130.03515625 C-41.03456807 138.10408879 -55.96456732 140.95939166 -71.55078125 138.0390625 C-84.67333203 134.283083 -95.39542976 127.28196318 -102.21484375 115.28515625 C-103.13878173 113.44483291 -104.03684028 111.59117308 -104.90234375 109.72265625 C-105.24394531 109.00464844 -105.58554687 108.28664063 -105.9375 107.546875 C-110.04888924 97.39269971 -108.69284542 85.70111894 -105.1640625 75.59765625 C-101.23841866 66.65253591 -94.01879291 59.63601443 -85.140625 55.58984375 C-72.30643884 50.61743655 -58.05518401 50.00326792 -44.49121094 48.44580078 C-36.91650635 47.56705283 -30.03330122 46.47495563 -22.90234375 43.72265625 C-22.82137051 41.45240657 -22.76316671 39.1813355 -22.71484375 36.91015625 C-22.68003906 35.64558594 -22.64523437 34.38101563 -22.609375 33.078125 C-22.62350996 29.82237149 -22.62350996 29.82237149 -24.12890625 27.87890625 C-30.47033747 23.74440484 -38.52455546 22.86230714 -45.90234375 23.72265625 C-55.27826584 25.70543322 -61.28038025 30.23804096 -66.640625 38.05078125 C-67.90234375 39.72265625 -67.90234375 39.72265625 -69.90234375 40.72265625 C-74.00038844 41.01961601 -78.10730615 41.0007163 -82.21484375 41.03515625 C-83.35630859 41.06416016 -84.49777344 41.09316406 -85.67382812 41.12304688 C-94.03586589 41.18658077 -94.03586589 41.18658077 -98.15625 38.98046875 C-100.71157136 35.67627245 -100.60579828 33.68907948 -100.37890625 29.62890625 C-98.31751543 17.05780157 -91.62111829 6.04114884 -81.58984375 -1.71484375 C-58.19110314 -17.39936208 -22.70202306 -16.10978406 0 0 Z " fill="#FDFDFD" transform="translate(586.90234375,114.27734375)"/>
<path d="M0 0 C2.56303012 2.4810208 2.98997054 3.90637878 3.37473011 7.49796391 C3.38991934 8.92784763 3.38852409 10.35796419 3.3742218 11.78785706 C3.37819621 12.57728366 3.38217061 13.36671027 3.38626546 14.1800589 C3.39589781 16.82798558 3.38406486 19.47537923 3.37231445 22.12329102 C3.37474209 24.02046915 3.37846114 25.91764601 3.38337708 27.81481934 C3.39279289 32.96964633 3.38335513 38.12428369 3.37004495 43.27909589 C3.3587418 48.66823692 3.36283703 54.05736847 3.36479187 59.44651794 C3.36567513 68.49619654 3.35458714 77.54580027 3.33618164 86.59545898 C3.31500716 97.06671195 3.31150531 107.53785526 3.3177436 118.00912529 C3.32343266 128.07276331 3.31779741 138.13636261 3.30657005 148.19999504 C3.30191865 152.48742321 3.30105254 156.77482775 3.3031559 161.06225777 C3.30503567 166.10767501 3.29695893 171.1529802 3.2810955 176.19837189 C3.27684301 178.0531639 3.27600855 179.90796726 3.27878571 181.76276207 C3.28199427 184.28834102 3.27295939 186.81358236 3.26069641 189.33912659 C3.2663654 190.44835561 3.2663654 190.44835561 3.27214891 191.57999331 C3.24025263 195.27595433 3.10756389 196.83865417 1 200 C-4.36116066 201.78705355 -10.17263447 201.22559269 -15.78833008 201.24023438 C-18.05782171 201.24997991 -20.32642243 201.28103343 -22.59570312 201.3125 C-24.03384879 201.31902652 -25.47200092 201.32427837 -26.91015625 201.328125 C-28.22121338 201.3374707 -29.53227051 201.34681641 -30.88305664 201.35644531 C-31.91164795 201.23881836 -32.94023926 201.12119141 -34 201 C-36.46015811 197.30976283 -36.28226254 194.52453173 -36.26069641 190.25646973 C-36.26452196 189.45973044 -36.26834751 188.66299115 -36.27228898 187.84210825 C-36.28263505 185.16355257 -36.27862382 182.4852106 -36.2746582 179.80664062 C-36.27900375 177.88990581 -36.28418637 175.97317274 -36.29014587 174.05644226 C-36.30356304 168.84375531 -36.3041116 163.63114073 -36.30158257 158.41843987 C-36.30051485 154.07172702 -36.30539106 149.72502895 -36.310188 145.37831926 C-36.32129228 135.12736443 -36.32171521 124.87644623 -36.31567383 114.62548828 C-36.30963013 104.03778761 -36.32195303 93.45021969 -36.3432439 82.86254168 C-36.36083453 73.78224605 -36.36686533 64.70199278 -36.36360615 55.62168074 C-36.36178932 50.19398357 -36.36446931 44.76638114 -36.37832069 39.33869934 C-36.39085343 34.23663733 -36.38899831 29.13478303 -36.37590981 24.03272438 C-36.37353462 22.15696456 -36.37631218 20.28119032 -36.38453293 18.40544701 C-36.3949227 15.85123035 -36.38696297 13.29772074 -36.3742218 10.74353027 C-36.38159609 9.99558024 -36.38897037 9.24763021 -36.39656812 8.47701502 C-36.34379275 3.47240965 -36.34379275 3.47240965 -34.58940411 1.06168365 C-26.04790459 -4.64383226 -9.1827526 -3.39153929 0 0 Z " fill="#FEFEFE" transform="translate(324,47)"/>
<path d="M0 0 C10.35045159 8.00785516 16.97727179 19.28423281 18.69140625 32.30859375 C20.00655197 46.96150898 17.89680486 61.34378309 8.69140625 73.30859375 C6.54004321 75.64725193 4.30572204 77.50949471 1.69140625 79.30859375 C1.14355469 79.72109375 0.59570312 80.13359375 0.03125 80.55859375 C-6.47181281 84.67481812 -14.9119304 84.47763803 -22.30859375 83.30859375 C-29.22755777 81.18801641 -35.11469105 77.86244065 -39.1328125 71.72265625 C-46.61462942 56.36131786 -48.40869585 35.762536 -43.18359375 19.43359375 C-39.95574666 10.23919015 -36.31634087 3.6598765 -27.45703125 -0.81640625 C-19.44025963 -4.08141869 -7.53142412 -4.70104011 0 0 Z " fill="#010101" transform="translate(918.30859375,137.69140625)"/>
<path d="M0 0 C0.69357692 9.96053525 -0.78493856 18.48969623 -7.25 26.375 C-8.47039358 27.61322815 -9.71985496 28.82365051 -11 30 C-11.52722656 30.52851563 -12.05445313 31.05703125 -12.59765625 31.6015625 C-17.2624019 35.40561476 -22.21418033 35.48263889 -28 35.5625 C-28.75966064 35.57732422 -29.51932129 35.59214844 -30.30200195 35.60742188 C-37.36482116 35.4792705 -42.26751999 32.87858001 -48 28.9375 C-51.04144405 24.47037905 -50.85249492 20.24126507 -50 15 C-47.23857647 10.09080261 -43.39053212 7.79143804 -38.12109375 6.046875 C-32.637619 4.52452416 -26.99210326 3.79440148 -21.375 2.9375 C-19.15351788 2.59327264 -16.93215883 2.24824994 -14.7109375 1.90234375 C-13.73431152 1.75273193 -12.75768555 1.60312012 -11.75146484 1.44897461 C-9.95788668 1.15630467 -8.17033765 0.8229256 -6.39306641 0.44360352 C-4 0 -4 0 0 0 Z " fill="#030303" transform="translate(567,186)"/>
<path d="M0 0 C6.16663367 4.52618937 12.13869098 10.04747315 13.5 17.875 C13 20 13 20 10 22 C7.62715149 22.24050903 7.62715149 22.24050903 4.79418945 22.22705078 C3.73331619 22.22689972 2.67244293 22.22674866 1.579422 22.22659302 C0.43559555 22.21627045 -0.7082309 22.20594788 -1.88671875 22.1953125 C-3.05886429 22.1924826 -4.23100983 22.18965271 -5.43867493 22.18673706 C-9.18838643 22.17552753 -12.93786049 22.15042128 -16.6875 22.125 C-19.2272101 22.11497121 -21.76692393 22.10584519 -24.30664062 22.09765625 C-30.53784165 22.07558567 -36.76890386 22.04210039 -43 22 C-43.1605779 13.93522491 -40.74973535 10.02943588 -35.32421875 4.19921875 C-26.25828629 -4.19979454 -10.74537358 -6.79809349 0 0 Z " fill="#020202" transform="translate(423,139)"/>
</svg>
