<?xml version="1.0" encoding="UTF-8"?>
<svg version="1.1" xmlns="http://www.w3.org/2000/svg" width="512" height="512">
<path d="M0 0 C168.96 0 337.92 0 512 0 C512 168.96 512 337.92 512 512 C343.04 512 174.08 512 0 512 C0 343.04 0 174.08 0 0 Z " fill="#000000" transform="translate(0,0)"/>
<path d="M0 0 C1.175625 0.37463379 1.175625 0.37463379 2.375 0.75683594 C26.46551183 8.61590916 49.16630056 21.33304414 69 37 C70.34964844 38.05960938 70.34964844 38.05960938 71.7265625 39.140625 C76.98388194 43.35254087 82.03421751 47.76382384 87 52.3125 C87.55228271 52.81628174 88.10456543 53.32006348 88.67358398 53.83911133 C94.67184931 59.40076759 94.67184931 59.40076759 96 62 C94.86818291 65.78857217 93.3246477 68.01657401 90.4375 70.671875 C89.72835449 71.3313916 89.01920898 71.9909082 88.28857422 72.67041016 C87.53334473 73.3566748 86.77811523 74.04293945 86 74.75 C85.22543457 75.46591309 84.45086914 76.18182617 83.65283203 76.91943359 C78.99987669 81.21004868 74.30767433 85.45755762 69.58203125 89.66796875 C66.20477802 92.7182262 62.88459042 95.82740515 59.5625 98.9375 C57.04240717 101.29246035 54.52127848 103.64630919 52 106 C51.16758789 106.77851318 51.16758789 106.77851318 50.31835938 107.57275391 C48.82092157 108.97002402 47.31690571 110.36023484 45.8125 111.75 C44.55373047 112.91789062 44.55373047 112.91789062 43.26953125 114.109375 C39.3338114 117.38801253 35.80000824 118.87502058 30.66796875 118.7578125 C25.10231245 117.17693794 20.96753916 112.38146158 16.76660156 108.56103516 C-11.47673913 83.6041639 -49.20566783 73.28175427 -86.37304688 74.82714844 C-92.74177342 75.24620591 -98.80544297 76.47096377 -105 78 C-106.28390625 78.30164063 -107.5678125 78.60328125 -108.890625 78.9140625 C-116.94978263 80.92069487 -124.4987293 83.43843537 -132 87 C-132.6801416 87.32178223 -133.3602832 87.64356445 -134.06103516 87.97509766 C-168.59587697 104.5611575 -192.71270255 129.67100696 -205.91015625 165.6640625 C-211.23191627 181.95360751 -213.35753442 198.23791728 -213.26074219 215.31616211 C-213.24999013 217.56456336 -213.26073066 219.81216903 -213.2734375 222.06054688 C-213.28684514 234.55023274 -211.96925138 246.6008906 -208.6875 258.6875 C-208.4694873 259.49856201 -208.25147461 260.30962402 -208.02685547 261.14526367 C-206.27575785 267.43775931 -203.98412295 273.18610528 -201 279 C-200.51015625 280.05960937 -200.0203125 281.11921875 -199.515625 282.2109375 C-184.31624641 314.41914452 -157.63474672 340.72545114 -124 353 C-89.94104738 364.76292984 -49.34415427 361.31176714 -16.96777344 346.04150391 C8.04424392 333.28887959 30.48334981 311.7296677 40.03515625 285.00390625 C42.19009033 278.29482 43.62046545 272.07330619 43 265 C39.90976228 262.93984152 39.28263287 262.75065677 35.7938385 262.75517273 C34.93725143 262.75123505 34.08066437 262.74729736 33.19812012 262.74324036 C31.79306213 262.75178291 31.79306213 262.75178291 30.35961914 262.76049805 C29.37074203 262.75848389 28.38186493 262.75646973 27.36302185 262.75439453 C25.213713 262.75084631 23.06439371 262.75161946 20.91508675 262.75617027 C17.51532532 262.7617513 14.1159066 262.75262496 10.71617126 262.7389679 C1.04945364 262.70178502 -8.61714848 262.68331736 -18.28393555 262.69458008 C-24.19439754 262.7004231 -30.10437806 262.68220906 -36.0147419 262.64869118 C-38.26941139 262.64072275 -40.52413316 262.64203356 -42.77879143 262.65271568 C-45.92980379 262.66700246 -49.0792967 262.65081303 -52.23022461 262.62768555 C-53.1649057 262.63945328 -54.09958679 262.65122101 -55.06259155 262.66334534 C-61.30663038 262.57327354 -61.30663038 262.57327354 -64.57627869 259.86994934 C-66.25300092 256.48999862 -66.51902189 254.22169681 -66.54931641 250.453125 C-66.56838043 249.14827148 -66.58744446 247.84341797 -66.60708618 246.49902344 C-66.60656335 245.08268119 -66.60468935 243.66633889 -66.6015625 242.25 C-66.60934205 240.78938308 -66.61801255 239.32877067 -66.62753296 237.86816406 C-66.64243058 234.81169951 -66.64189435 231.75569712 -66.63134766 228.69921875 C-66.61974813 224.78794128 -66.65364948 220.87855502 -66.700037 216.96759033 C-66.72953986 213.95285036 -66.73125198 210.93856482 -66.72501755 207.92370605 C-66.72604222 206.48201749 -66.73648554 205.04030291 -66.75664139 203.59875488 C-66.78138986 201.58160943 -66.76388739 199.56408034 -66.74462891 197.546875 C-66.74588776 196.40057617 -66.74714661 195.25427734 -66.7484436 194.07324219 C-65.89515788 190.56949968 -64.57146205 189.24825412 -61.77388716 187.04611957 C-58.79713626 185.29063171 -55.79027008 185.32056848 -52.44065857 185.38526917 C-51.69993687 185.37958591 -50.95921517 185.37390265 -50.19604737 185.36804718 C-47.72443885 185.3551714 -45.25447705 185.37790792 -42.78295898 185.40063477 C-41.00695452 185.39877017 -39.23095121 185.39473236 -37.45495605 185.38868713 C-32.63878873 185.37871614 -27.82321035 185.39987636 -23.00712848 185.42716718 C-17.96595066 185.45100672 -12.92478433 185.4480523 -7.88356018 185.44847107 C0.58090173 185.4530983 9.04513861 185.47673534 17.50952148 185.51293945 C27.29573217 185.5546859 37.08174028 185.57225517 46.8680349 185.5755592 C57.28779354 185.57915891 67.70747929 185.59803319 78.12720752 185.62267947 C81.12956506 185.62890762 84.13191706 185.63254423 87.13427925 185.63571358 C91.85144142 185.64161531 96.56845892 185.65793173 101.28556061 185.68231773 C103.01695322 185.68975651 104.74836404 185.69382959 106.47977257 185.69429779 C108.84254483 185.69555616 111.20493613 185.70910647 113.56764221 185.72584534 C114.25324693 185.72343025 114.93885164 185.72101517 115.64523226 185.7185269 C120.72016049 185.77484003 124.26994939 186.60477352 128.23535156 189.80273438 C134.35752033 197.42580008 132.31485423 212.10003829 132.25 221.5 C132.24689819 222.2981311 132.24379639 223.09626221 132.24060059 223.9185791 C132.1853345 236.04735831 131.79912695 247.98832217 130 260 C129.79068848 261.44487793 129.79068848 261.44487793 129.57714844 262.91894531 C127.81627784 274.86370447 125.75697679 286.50213813 122 298 C121.54783965 299.52034669 121.09745204 301.04122126 120.6484375 302.5625 C114.10438199 324.07814909 104.16433887 344.74459001 91 363 C90.58153809 363.58378418 90.16307617 364.16756836 89.73193359 364.76904297 C84.45807446 372.04709203 78.65072157 378.76538487 72.50390625 385.30859375 C70.50981492 387.45200861 68.61837468 389.62434917 66.75 391.875 C57.60593729 402.37212211 46.72779657 411.34022239 35.66455078 419.72509766 C34.05962097 420.95433548 32.48035758 422.21686373 30.90234375 423.48046875 C-3.0442306 450.47464734 -44.22693451 469.24134798 -84.8125 483.6875 C-86.22631958 484.1966394 -86.22631958 484.1966394 -87.66870117 484.71606445 C-92.21811508 486.28869621 -96.11375534 487.54291607 -101 487 C-103.12396155 484.87603845 -102.13717022 480.05549331 -102.140625 477.109375 C-102.15895732 475.26691476 -102.17852802 473.42446651 -102.19921875 471.58203125 C-102.22817166 468.66760164 -102.24999934 465.75393815 -102.25048828 462.83935547 C-102.25382541 460.0328317 -102.28839755 457.22808935 -102.328125 454.421875 C-102.31752045 453.1200528 -102.31752045 453.1200528 -102.30670166 451.79193115 C-102.39139143 447.57562742 -102.61550213 445.54359121 -105.10644531 442.02197266 C-108.4625078 439.67680648 -110.94778081 438.95837041 -114.96875 438.2265625 C-115.63745117 438.0974498 -116.30615234 437.9683371 -116.99511719 437.83531189 C-118.4223146 437.56009348 -119.85102003 437.29259947 -121.28100586 437.03225708 C-125.03083883 436.34404164 -128.76539867 435.58242818 -132.5 434.81640625 C-133.23827026 434.66535934 -133.97654053 434.51431244 -134.73718262 434.35868835 C-182.81724864 424.32633676 -229.38031189 391.53728031 -258 352 C-258.40492676 351.45005371 -258.80985352 350.90010742 -259.22705078 350.33349609 C-276.10648481 327.18281275 -286.42972269 301.00739897 -293.375 273.4375 C-293.54480377 272.7643576 -293.71460754 272.09121521 -293.88955688 271.39767456 C-308.15069007 214.2946337 -300.04578643 153.73446269 -269.97729492 103.08862305 C-265.09509726 95.01846405 -259.8886842 87.37668505 -254 80 C-253.26007813 79.06800781 -252.52015625 78.13601562 -251.7578125 77.17578125 C-238.73555478 61.02187332 -224.46104519 45.57618095 -207.70019531 33.25146484 C-206.00363496 32.00267559 -204.32604025 30.73112897 -202.6484375 29.45703125 C-193.61318867 22.69658218 -183.99831349 17.20517197 -174 12 C-173.33194336 11.64695801 -172.66388672 11.29391602 -171.97558594 10.93017578 C-153.7874701 1.42668054 -133.22094018 -5.45199862 -113 -9 C-111.76540039 -9.21994629 -111.76540039 -9.21994629 -110.50585938 -9.44433594 C-72.81974381 -15.8353074 -36.22026961 -11.64734923 0 0 Z " fill="#FEFEFE" transform="translate(341,23)"/>
</svg>
